<mxfile host="app.diagrams.net" agent="Mozilla/5.0 (X11; Ubuntu; Linux x86_64; rv:135.0) Gecko/20100101 Firefox/135.0" version="26.0.14">
  <diagram name="Page-1" id="90a13364-a465-7bf4-72fc-28e22215d7a0">
    <mxGraphModel dx="733" dy="395" grid="1" gridSize="10" guides="1" tooltips="1" connect="1" arrows="1" fold="1" page="1" pageScale="1.5" pageWidth="1169" pageHeight="826" background="none" math="0" shadow="0">
      <root>
        <mxCell id="0" style=";html=1;" />
        <mxCell id="1" style=";html=1;" parent="0" />
        <mxCell id="1WpGNvqaU7ojmKuFjwYu-5" style="edgeStyle=orthogonalEdgeStyle;rounded=0;orthogonalLoop=1;jettySize=auto;html=1;exitX=0.5;exitY=1;exitDx=0;exitDy=0;endArrow=classic;endFill=1;startArrow=classic;startFill=1;" edge="1" parent="1" source="3a17f1ce550125da-8" target="1WpGNvqaU7ojmKuFjwYu-4">
          <mxGeometry relative="1" as="geometry" />
        </mxCell>
        <mxCell id="1WpGNvqaU7ojmKuFjwYu-9" value="12V" style="edgeLabel;html=1;align=center;verticalAlign=middle;resizable=0;points=[];" vertex="1" connectable="0" parent="1WpGNvqaU7ojmKuFjwYu-5">
          <mxGeometry x="-0.0027" y="1" relative="1" as="geometry">
            <mxPoint as="offset" />
          </mxGeometry>
        </mxCell>
        <mxCell id="1WpGNvqaU7ojmKuFjwYu-7" style="edgeStyle=orthogonalEdgeStyle;rounded=0;orthogonalLoop=1;jettySize=auto;html=1;entryX=0;entryY=0.5;entryDx=0;entryDy=0;" edge="1" parent="1" source="3a17f1ce550125da-8" target="1WpGNvqaU7ojmKuFjwYu-6">
          <mxGeometry relative="1" as="geometry">
            <mxPoint x="500" y="554" as="targetPoint" />
          </mxGeometry>
        </mxCell>
        <mxCell id="1WpGNvqaU7ojmKuFjwYu-8" value="12V" style="edgeLabel;html=1;align=center;verticalAlign=middle;resizable=0;points=[];" vertex="1" connectable="0" parent="1WpGNvqaU7ojmKuFjwYu-7">
          <mxGeometry x="0.0558" relative="1" as="geometry">
            <mxPoint as="offset" />
          </mxGeometry>
        </mxCell>
        <mxCell id="3a17f1ce550125da-8" value="Controlleur de charge" style="whiteSpace=wrap;html=1;shadow=1;fontSize=18;fillColor=none;strokeColor=#000000;" parent="1" vertex="1">
          <mxGeometry x="350" y="524" width="120" height="60" as="geometry" />
        </mxCell>
        <mxCell id="1WpGNvqaU7ojmKuFjwYu-2" style="edgeStyle=orthogonalEdgeStyle;rounded=0;orthogonalLoop=1;jettySize=auto;html=1;exitX=0.5;exitY=1;exitDx=0;exitDy=0;entryX=0.5;entryY=0;entryDx=0;entryDy=0;" edge="1" parent="1" source="1WpGNvqaU7ojmKuFjwYu-1" target="3a17f1ce550125da-8">
          <mxGeometry relative="1" as="geometry" />
        </mxCell>
        <mxCell id="1WpGNvqaU7ojmKuFjwYu-10" value="15-24V" style="edgeLabel;html=1;align=center;verticalAlign=middle;resizable=0;points=[];" vertex="1" connectable="0" parent="1WpGNvqaU7ojmKuFjwYu-2">
          <mxGeometry x="-0.3891" relative="1" as="geometry">
            <mxPoint as="offset" />
          </mxGeometry>
        </mxCell>
        <mxCell id="1WpGNvqaU7ojmKuFjwYu-1" value="&lt;div&gt;Panneau&lt;/div&gt;&lt;div&gt;solaire&lt;/div&gt;" style="shape=parallelogram;perimeter=parallelogramPerimeter;whiteSpace=wrap;html=1;fixedSize=1;fillColor=none;strokeColor=#000000;fontSize=18;" vertex="1" parent="1">
          <mxGeometry x="340" y="431" width="140" height="46" as="geometry" />
        </mxCell>
        <mxCell id="1WpGNvqaU7ojmKuFjwYu-4" value="Batterie" style="shape=image;verticalLabelPosition=bottom;labelBackgroundColor=default;verticalAlign=middle;aspect=fixed;imageAspect=0;editableCssRules=.*;image=data:image/svg+xml,PHN2ZyB4bWxucz0iaHR0cDovL3d3dy53My5vcmcvMjAwMC9zdmciIGhlaWdodD0iODU2LjkxNzQ4MDQ2ODc1IiB3aWR0aD0iMTA1Ni44MjYwNDk4MDQ2ODc1IiB4bWw6c3BhY2U9InByZXNlcnZlIiBpZD0ic3ZnNDgwIiB2ZXJzaW9uPSIxLjEiIHZpZXdCb3g9Ii0wLjAwMDAyMDU4NTk1NDE4OTMwMDUzNyAwLjAwMDE1MjU4Nzg5MDYyNSAxMDU2LjgyNjA0OTgwNDY4NzUgODU2LjkxNzQ4MDQ2ODc1Ij48ZGVmcyBpZD0iZGVmczQ4NCIvPjxnIHRyYW5zZm9ybT0ibWF0cml4KDMuNzc5NTI3NiwwLDAsMy43Nzk1Mjc2LDI5My43NDY4NCwtMTg0LjAzMTI1KSIgaWQ9Imc0ODYiPjxwYXRoIGlkPSJwYXRoMzAyIiBkPSJtIC03My40MjgyNDMsMjc1LjE4NzY1IGMgLTEuMzEyNDYsLTAuMzEyOTggLTIuNjA1MTQsLTEuMjM5MDcgLTMuNDMyODgsLTIuNDU5MzMgbCAtMC43NjI5MywtMS4xMjQ3NCAtMC4wNzc0LC05Ni43MDUyMSBjIC0wLjA1NDUsLTY4LjA4MDk2IDAuMDA2LC05Ni45OTUzNiAwLjIwNTQ4LC05Ny42ODU0NyAwLjM0NzU3LC0xLjIwNDIgMS4yOTc1MiwtMi4zNjU0MSAyLjU5NTExLC0zLjE3MjI1IDAuOTc2ODQsLTAuNjA3MzkgMS4wMzExNywtMC42MTA1NSAxMi43NTQ5OCwtMC43NDIyOCBsIDExLjc3Mzk2LC0wLjEzMjI5IDAuMTMyMjksLTEwLjMxODc1IGMgMC4xNDY2NiwtMTEuNDM5NTEgMC4xMDExNCwtMTEuMTQzMyAxLjk2MzYzLC0xMi43Nzg1OCAwLjUxMjc3LC0wLjQ1MDIzIDEuMzgyMDYsLTAuOTQzNDkgMS45MzE3NCwtMS4wOTYxMyAwLjY1NjA4LC0wLjE4MjIgNy43ODMzNCwtMC4yNzgwNSAyMC43NDY4MSwtMC4yNzkwMiBsIDE5Ljc0NzM4OTksLTAuMDAyIDEuNDE1MTksMC43MzkzIGMgMS4wMjk5MiwwLjUzODA0IDEuNjMyNCwxLjA5MDQ4IDIuMjEzMDMsMi4wMjkyNSBsIDAuNzk3ODMsMS4yODk5NCAwLjA3NzgsMTAuMjczODggMC4wNzc4LDEwLjI3Mzg4IEggNjIuMDc4ODY3IDEyNS40MjYxMyBsIDAuMDc1LC0xMC40Mjg2MyAwLjA3NDksLTEwLjQyODYyIDAuNzk1MzksLTEuMTQ2OSBjIDAuNTIwNzUsLTAuNzUwODggMS4yOTA4MiwtMS4zOTgxMiAyLjIzMDI1LC0xLjg3NDUgbCAxLjQzNDg2LC0wLjcyNzYgaCAxOS44ODExNyAxOS44ODExNiBsIDEuNDM0ODYsMC43Mjc2IGMgMC45MzkzMiwwLjQ3NjMyIDEuNzA5NTUsMS4xMjM2NyAyLjIzMDI1LDEuODc0NCBsIDAuNzk1MzksMS4xNDY4IDAuMTMyMjksMTAuMzYyNTggMC4xMzIzLDEwLjM2MjU4IDExLjY0MTY2LDAuMTMyMjkgYyAxMi45NzM0OCwwLjE0NzQzIDEyLjg5NjAxLDAuMTM2NSAxNC4zMzM0MywyLjAyMTA3IDEuNDgwOTMsMS45NDE2MSAxLjM4NTEyLC00Ljg0MTk1IDEuMzk3NjYsOTguOTUwMzUgMC4wMTAzLDg1LjkzMDcyIC0wLjAzMTUsOTYuMTk4ODggLTAuMzk2NjEsOTcuMjM0MzggLTAuNTcyNjEsMS42MjM5OSAtMi4wNzEsMy4wNzIxMyAtMy42NzAwOCwzLjU0NzAxIC0xLjE0NDk0LDAuMzQwMDEgLTE4LjIxMDQsMC4zODU0NCAtMTM1Ljg2ODE1MywwLjM2MTc2IC03NC4wMDczMSwtMC4wMTQ4IC0xMzQuOTMyODIsLTAuMTE2MjggLTEzNS4zOTAwMiwtMC4yMjUyOSB6IG0gMjYzLjg5Mzc1MywtODAuNzc2MjYgLTAuMDY2NiwtNjkuMzg2OTcgLTEyOC4zODkwNjMsLTAuMDY2NCAtMTI4LjM4OTA2LC0wLjA2NjQgdiA2OS40NTM0IDY5LjQ1MzM5IEggNjIuMDc2NDQ3IDE5MC41MzIxNiBaIG0gLTAuMDY2NiwtOTUuMzE2MTQgViA4NC44MDc3NSBIIDYyLjA3NTk0NyAtNjYuMjQ2OTczIGwgLTAuMDY4NCwxNC4zNTM5MSAtMC4wNjg0LDE0LjM1MzkyIDEyOC4zOTEzNSwtMC4wNjY0IDEyOC4zOTEzMzMsLTAuMDY2NCB6IE0gLTEyLjgwMTEzMyw2Ni42ODM3OSBWIDYwLjIwMTUgbCAtMTMuMDMwNzMsLTAuMDY4NiAtMTMuMDMwNzMsLTAuMDY4NiB2IDYuNjE5NTcgNi42MTk1NyBsIDEzLjAzMDczLC0wLjA2ODYgMTMuMDMwNzMsLTAuMDY4NiB6IG0gMTc1Ljc1NDEwMywwLjA2NjEgLTAuMDcwOCwtNi41NDg0NCBIIDE0OS45MTc1OCAxMzYuOTUzIGwgLTAuMDcwOCw2LjU0ODQ0IC0wLjA3MDgsNi41NDg0NCBoIDEzLjEwNjExIDEzLjEwNjEgeiIgc3R5bGU9ImZpbGw6IzAwMDAwMDtzdHJva2Utd2lkdGg6MC4yNjQ1ODMiLz48L2c+PC9zdmc+;fontFamily=Helvetica;fontSize=18;spacingBottom=150;" vertex="1" parent="1">
          <mxGeometry x="358.19" y="631" width="103.61" height="84" as="geometry" />
        </mxCell>
        <mxCell id="1WpGNvqaU7ojmKuFjwYu-12" style="edgeStyle=orthogonalEdgeStyle;rounded=0;orthogonalLoop=1;jettySize=auto;html=1;exitX=0.145;exitY=0.986;exitDx=0;exitDy=0;exitPerimeter=0;" edge="1" parent="1" source="1WpGNvqaU7ojmKuFjwYu-6" target="1WpGNvqaU7ojmKuFjwYu-11">
          <mxGeometry relative="1" as="geometry" />
        </mxCell>
        <mxCell id="1WpGNvqaU7ojmKuFjwYu-16" value="Commande" style="edgeLabel;html=1;align=center;verticalAlign=middle;resizable=0;points=[];rotation=-90;" vertex="1" connectable="0" parent="1WpGNvqaU7ojmKuFjwYu-12">
          <mxGeometry x="-0.0412" y="-2" relative="1" as="geometry">
            <mxPoint x="-6" y="5" as="offset" />
          </mxGeometry>
        </mxCell>
        <mxCell id="1WpGNvqaU7ojmKuFjwYu-6" value="Controlleur" style="whiteSpace=wrap;html=1;shadow=1;fontSize=18;fillColor=none;strokeColor=#000000;verticalAlign=top;" vertex="1" parent="1">
          <mxGeometry x="550" y="477" width="310" height="154" as="geometry" />
        </mxCell>
        <mxCell id="1WpGNvqaU7ojmKuFjwYu-11" value="      Moteur  1&#xa;&#xa;&#xa;&#xa;&#xa;&#xa;&#xa;&#xa;&#xa;" style="shape=image;verticalLabelPosition=bottom;labelBackgroundColor=none;verticalAlign=middle;aspect=fixed;imageAspect=0;editableCssRules=.*;image=data:image/svg+xml,PHN2ZyB4bWxucz0iaHR0cDovL3d3dy53My5vcmcvMjAwMC9zdmciIHhtbDpzcGFjZT0icHJlc2VydmUiIGlkPSJzdmc1IiB2ZXJzaW9uPSIxLjEiIHZpZXdCb3g9Ii05LjUzNjc0MzE2NDA2MjVlLTcgMCAxMTYuOTQ3MDA2MjI1NTg1OTQgNzEuOTY2NjEzNzY5NTMxMjUiIGhlaWdodD0iNzEuOTY2NjEzNzY5NTMxMjUiIHdpZHRoPSIxMTYuOTQ3MDA2MjI1NTg1OTQiPjxkZWZzIGlkPSJkZWZzMiIvPjxnIHRyYW5zZm9ybT0idHJhbnNsYXRlKC0yOS40OTA4OTUsLTE0OS40MDUyKSIgaWQ9ImxheWVyMSI+PGcgaWQ9ImcxNTMwIj48cGF0aCBpZD0icGF0aDMwMiIgZD0ibSA2My4zNTg3MiwyMjAuODQyNyBjIC0wLjY5ODI5LC0wLjY5ODI5IC0wLjY2NzU1LC0xLjIwODU4IDAuMTIwMjcsLTEuOTk2NCAwLjY0NzM3LC0wLjY0NzM3IDAuNjY2NjUsLTAuNjQ5NDMgNi4wODU0MSwtMC42NDk0MyBoIDUuNDM1OTkgdiAtMy4xNzUgLTMuMTc1IGggLTkuNDAxMjEgYyAtMTAuMjUxNzUsMCAtMTAuNzQ0NTksLTAuMDYyNyAtMTEuNjc4NzQsLTEuNDg2NzUgLTAuNDA1MzEsLTAuNjE3ODYgLTAuNDk4MDcsLTEuNDEzODQgLTAuNTcyOTksLTQuOTE2ODkgbCAtMC4wODk0LC00LjE3OTY5IGggLTMuODIxNzEgYyAtNi4zMzM4OSwwIC02LjU0MjY5LC0wLjIwODA3IC02LjY3MDk2LC02LjY0Nzg2IGwgLTAuMDg4MSwtNC40MjM5OSAtNC45NTkyLC0wLjA4NjUgYyAtNC45MDE4MiwtMC4wODU1IC00Ljk3MTkxLC0wLjA5NDkgLTYuMDU4MjEsLTAuODE0MzggLTIuNDg0NDgsLTEuNjQ1NTEgLTIuOTA1NTcsLTUuMDI0ODIgLTAuODk0MiwtNy4xNzYwNCAxLjI1MTU5LC0xLjMzODYxIDEuOTc2MjEsLTEuNDg4NzYgNy4xODQ1NiwtMS40ODg3NiBoIDQuNzcxIHYgLTQuMTA5NTQgYyAwLC00LjUxMDY1IDAuMjEzLC01LjQ0OTQxIDEuNDU4ODMsLTYuNDI5MzcgMC42Nzg0MywtMC41MzM2NiAxLjAyMTQ2LC0wLjU3MzU5IDQuOTI2ODUsLTAuNTczNTkgaCA0LjE5NzY1IHYgLTMuODQ0OTMgYyAwLC00LjIyODYxIDAuMjI5MzEsLTUuMTk3NjUgMS40NTg4MywtNi4xNjQ3OSAwLjcwMTc2LC0wLjU1MiAwLjk2NjgyLC0wLjU3MzU5IDcuMDQzNTIsLTAuNTczNTkgaCA2LjMxNDMyIHYgLTMuNjY0NjggYyAwLC0zLjgyNTQ2IDAuMjU1ODMsLTUuMTY2MjUgMS4wNjg3NywtNS42MDEzMiAwLjI4ODc5LC0wLjE1NDU1IDQuMTU3NDksLTAuMjU5IDkuNTkzNzgsLTAuMjU5IDguODE1NTQsMCA5LjEzMjM2LDAuMDE3NyA5LjgwNjk3LDAuNTQ4MzcgbCAwLjY5NzE0LDAuNTQ4MzcgdiA0LjIwODA0IDQuMjA4MDQgbCAyMS4yMzI4MiwwLjA3MjIgMjEuMjMyODEsMC4wNzIyIDEuNzE5NzksMC44Mjg0MiBjIDAuOTQ1ODgsMC40NTU2NCAzLjY4NDMyLDIuMzQ1MDggNi4wODU0Miw0LjE5ODc1IDUuMjQ0MzMsNC4wNDg3IDUuNzI0OTYsNC40ODE4MSA2LjM3NDIzLDUuNzQ0MDYgMC40Nzg4LDAuOTMwODMgMC41MDQ5MywxLjczMzIzIDAuNTA0OTMsMTUuNTAyNjUgdiAxNC41MjEwMSBsIC0wLjYxMTYyLDEuMTU2NiBjIC0wLjQ3Njg2LDAuOTAxNzUgLTEuNjg2NTgsMS45OTE1OSAtNS40OTAxMSw0Ljk0NjA3IC01LjIxNDE5LDQuMDUwMjQgLTYuOTY4NzYsNS4xMTcyMSAtOS4xOTA5OCw1LjU4OTA4IC0wLjgxMTIsMC4xNzIyNiAtNC4wMTY5MSwwLjI5NzczIC03LjYwNjc3LDAuMjk3NzMgaCAtNi4yMDQ2OCB2IDMuMTc1IDMuMTc1IGggNS41NTYyNSBjIDUuMjAzNDcsMCA1LjU4OTg0LDAuMDMzNiA2LjA4NTQxLDAuNTI5MTYgMC42NjAzNSwwLjY2MDM1IDAuNjgwMzIsMS42MzMyOSAwLjA0NTMsMi4yMDc5NSAtMC40NDQ2OCwwLjQwMjQzIC0zLjEwMTM3LDAuNDM3ODkgLTMyLjgwODM0LDAuNDM3ODkgLTMxLjk3MTcsMCAtMzIuMzMwMjUsLTAuMDA2IC0zMi44NTM2NCwtMC41MjkxNyB6IG0gNTAuOCwtNS44MjA4MyB2IC0zLjE3NSBIIDk2LjE2NzA1IDc4LjE3NTM5IHYgMy4xNzUgMy4xNzUgaCAxNy45OTE2NiAxNy45OTE2NyB6IE0gNjMuODg3ODksMTg1LjM4ODU0IFYgMTYyLjEwNTIgaCAtMy43MDQxNyAtMy43MDQxNyB2IDIzLjI4MzM0IDIzLjI4MzMzIGggMy43MDQxNyAzLjcwNDE3IHogbSA1MC4yNzA4MywyMS42OTU4MyB2IC0xLjU4NzUgSCA5MC42MTA4IDY3LjA2Mjg5IHYgMS41ODc1IDEuNTg3NSBoIDIzLjU0NzkxIDIzLjU0NzkyIHogbSAxNy45OTE2NiwwLjg5MjIxIGMgMS4wNzI2MSwtMC41MDcxOSA0LjM0ODA5LC0yLjkzMDI4IDkuMzI2NTYsLTYuODk5NDggbCAxLjc4NTk0LC0xLjQyMzg3IC0wLjAwNCwtMTQuMjA5OTUgYyAtMC4wMDIsLTcuODE1NDggLTAuMDkxNSwtMTQuMzQ3MTIgLTAuMTk4NDMsLTE0LjUxNDc3IC0wLjUwNDQ5LC0wLjc5MTA5IC0xMC4zNjE1MywtOC4wNjExMiAtMTEuNDIwMTcsLTguNDIyOTEgLTAuOTIyNDcsLTAuMzE1MjUgLTIuNTY4MTgsLTAuNDAwNCAtNy43MzkwNiwtMC40MDA0IGggLTYuNTY3NDUgdiAyMy4yOTk2IDIzLjI5OTU5IGwgNi44MTMwMiwtMC4wODI0IGMgNi4zMDMxLC0wLjA3NjIgNi45MDIxMywtMC4xMjQ1NCA4LjAwMzY0LC0wLjY0NTQgeiBNIDUzLjMwNDU1LDE4NS4zODg1NCB2IC0xMi43IGggLTMuNzA0MTYgLTMuNzA0MTcgdiAxMi43IDEyLjcgaCAzLjcwNDE3IDMuNzA0MTYgeiBtIC0xMC41ODMzMywwIHYgLTEuNTg3NSBoIC00LjYxMTMxIGMgLTUuMDc2MjgsMCAtNS40NDI4NiwwLjEwNzE4IC01LjQ0Mjg2LDEuNTkxMzkgMCwxLjQwMDc3IDAuNjQ4MjksMS41ODM2MSA1LjYxNTEzLDEuNTgzNjEgaCA0LjQzOTA0IHogbSA3MS40Mzc1LC0yMS42OTU4NCB2IC0xLjU4NzUgSCA5MC42MTA4IDY3LjA2Mjg5IHYgMS41ODc1IDEuNTg3NSBoIDIzLjU0NzkxIDIzLjU0NzkyIHogbSAtMjguMDQ1ODQsLTcuOTM3NSB2IC0zLjE3NSBoIC03LjQwODMzIC03LjQwODMzIHYgMy4xNzUgMy4xNzUgaCA3LjQwODMzIDcuNDA4MzMgeiBtIC0xMS41Mzc4MywwLjkyMTY0IGMgLTAuNDg1NjcsLTAuNDg1NjcgLTAuNjE4MzksLTAuODI1NzcgLTAuNDkwNDIsLTEuMjU2NzcgMC4zNjc2MiwtMS4yMzgxOSAxLjc4ODU4LC0xLjY1OTA4IDIuNTk0NTQsLTAuNzY4NTEgMC42MjQ5OCwwLjY5MDU5IDAuNTUyNzUsMS43ODY5MyAtMC4xNTAxNiwyLjI3OTI3IC0wLjgxMDA4LDAuNTY3NCAtMS4xODA3NSwwLjUxOTIxIC0xLjk1Mzk2LC0wLjI1Mzk5IHogbSA2LjM1LDAgYyAtMC40ODU2NywtMC40ODU2NyAtMC42MTgzOSwtMC44MjU3NyAtMC40OTA0MiwtMS4yNTY3NyAwLjM2NzYyLC0xLjIzODE5IDEuNzg4NTgsLTEuNjU5MDggMi41OTQ1NCwtMC43Njg1MSAwLjYyNDk4LDAuNjkwNTkgMC41NTI3NSwxLjc4NjkzIC0wLjE1MDE2LDIuMjc5MjcgLTAuODEwMDgsMC41Njc0IC0xLjE4MDc1LDAuNTE5MjEgLTEuOTUzOTYsLTAuMjUzOTkgeiIgc3R5bGU9ImZpbGw6IzAwMDAwMDtzdHJva2Utd2lkdGg6MC4yNjQ1ODMiLz48cmVjdCB5PSIxNjcuNTQwMzkiIHg9IjY3LjcxODQyMiIgaGVpZ2h0PSIzNS40NDc2NjYiIHdpZHRoPSI0Ni4zMTYwNTUiIGlkPSJyZWN0NDUyIiBzdHlsZT0iZmlsbDojZmZmZmZmO2ZpbGwtb3BhY2l0eToxO3N0cm9rZS13aWR0aDoxLjAyMTkyO3N0cm9rZS1kYXNoYXJyYXk6Mi4wNzUzOSwgNi4yMjYxODtzdHJva2UtZGFzaG9mZnNldDo3LjQ3MTQxIi8+PC9nPjwvZz48L3N2Zz4=;fontSize=15;" vertex="1" parent="1">
          <mxGeometry x="530" y="728" width="130" height="80" as="geometry" />
        </mxCell>
        <mxCell id="1WpGNvqaU7ojmKuFjwYu-17" style="edgeStyle=orthogonalEdgeStyle;rounded=0;orthogonalLoop=1;jettySize=auto;html=1;exitX=0.25;exitY=1;exitDx=0;exitDy=0;" edge="1" parent="1" target="1WpGNvqaU7ojmKuFjwYu-19">
          <mxGeometry relative="1" as="geometry">
            <mxPoint x="755" y="631" as="sourcePoint" />
          </mxGeometry>
        </mxCell>
        <mxCell id="1WpGNvqaU7ojmKuFjwYu-18" value="Commande" style="edgeLabel;html=1;align=center;verticalAlign=middle;resizable=0;points=[];rotation=-90;" vertex="1" connectable="0" parent="1WpGNvqaU7ojmKuFjwYu-17">
          <mxGeometry x="-0.0412" y="-2" relative="1" as="geometry">
            <mxPoint x="-6" y="4" as="offset" />
          </mxGeometry>
        </mxCell>
        <mxCell id="1WpGNvqaU7ojmKuFjwYu-19" value="      Moteur  2&#xa;&#xa;&#xa;&#xa;&#xa;&#xa;&#xa;&#xa;&#xa;" style="shape=image;verticalLabelPosition=bottom;labelBackgroundColor=none;verticalAlign=middle;aspect=fixed;imageAspect=0;editableCssRules=.*;image=data:image/svg+xml,PHN2ZyB4bWxucz0iaHR0cDovL3d3dy53My5vcmcvMjAwMC9zdmciIHhtbDpzcGFjZT0icHJlc2VydmUiIGlkPSJzdmc1IiB2ZXJzaW9uPSIxLjEiIHZpZXdCb3g9Ii05LjUzNjc0MzE2NDA2MjVlLTcgMCAxMTYuOTQ3MDA2MjI1NTg1OTQgNzEuOTY2NjEzNzY5NTMxMjUiIGhlaWdodD0iNzEuOTY2NjEzNzY5NTMxMjUiIHdpZHRoPSIxMTYuOTQ3MDA2MjI1NTg1OTQiPjxkZWZzIGlkPSJkZWZzMiIvPjxnIHRyYW5zZm9ybT0idHJhbnNsYXRlKC0yOS40OTA4OTUsLTE0OS40MDUyKSIgaWQ9ImxheWVyMSI+PGcgaWQ9ImcxNTMwIj48cGF0aCBpZD0icGF0aDMwMiIgZD0ibSA2My4zNTg3MiwyMjAuODQyNyBjIC0wLjY5ODI5LC0wLjY5ODI5IC0wLjY2NzU1LC0xLjIwODU4IDAuMTIwMjcsLTEuOTk2NCAwLjY0NzM3LC0wLjY0NzM3IDAuNjY2NjUsLTAuNjQ5NDMgNi4wODU0MSwtMC42NDk0MyBoIDUuNDM1OTkgdiAtMy4xNzUgLTMuMTc1IGggLTkuNDAxMjEgYyAtMTAuMjUxNzUsMCAtMTAuNzQ0NTksLTAuMDYyNyAtMTEuNjc4NzQsLTEuNDg2NzUgLTAuNDA1MzEsLTAuNjE3ODYgLTAuNDk4MDcsLTEuNDEzODQgLTAuNTcyOTksLTQuOTE2ODkgbCAtMC4wODk0LC00LjE3OTY5IGggLTMuODIxNzEgYyAtNi4zMzM4OSwwIC02LjU0MjY5LC0wLjIwODA3IC02LjY3MDk2LC02LjY0Nzg2IGwgLTAuMDg4MSwtNC40MjM5OSAtNC45NTkyLC0wLjA4NjUgYyAtNC45MDE4MiwtMC4wODU1IC00Ljk3MTkxLC0wLjA5NDkgLTYuMDU4MjEsLTAuODE0MzggLTIuNDg0NDgsLTEuNjQ1NTEgLTIuOTA1NTcsLTUuMDI0ODIgLTAuODk0MiwtNy4xNzYwNCAxLjI1MTU5LC0xLjMzODYxIDEuOTc2MjEsLTEuNDg4NzYgNy4xODQ1NiwtMS40ODg3NiBoIDQuNzcxIHYgLTQuMTA5NTQgYyAwLC00LjUxMDY1IDAuMjEzLC01LjQ0OTQxIDEuNDU4ODMsLTYuNDI5MzcgMC42Nzg0MywtMC41MzM2NiAxLjAyMTQ2LC0wLjU3MzU5IDQuOTI2ODUsLTAuNTczNTkgaCA0LjE5NzY1IHYgLTMuODQ0OTMgYyAwLC00LjIyODYxIDAuMjI5MzEsLTUuMTk3NjUgMS40NTg4MywtNi4xNjQ3OSAwLjcwMTc2LC0wLjU1MiAwLjk2NjgyLC0wLjU3MzU5IDcuMDQzNTIsLTAuNTczNTkgaCA2LjMxNDMyIHYgLTMuNjY0NjggYyAwLC0zLjgyNTQ2IDAuMjU1ODMsLTUuMTY2MjUgMS4wNjg3NywtNS42MDEzMiAwLjI4ODc5LC0wLjE1NDU1IDQuMTU3NDksLTAuMjU5IDkuNTkzNzgsLTAuMjU5IDguODE1NTQsMCA5LjEzMjM2LDAuMDE3NyA5LjgwNjk3LDAuNTQ4MzcgbCAwLjY5NzE0LDAuNTQ4MzcgdiA0LjIwODA0IDQuMjA4MDQgbCAyMS4yMzI4MiwwLjA3MjIgMjEuMjMyODEsMC4wNzIyIDEuNzE5NzksMC44Mjg0MiBjIDAuOTQ1ODgsMC40NTU2NCAzLjY4NDMyLDIuMzQ1MDggNi4wODU0Miw0LjE5ODc1IDUuMjQ0MzMsNC4wNDg3IDUuNzI0OTYsNC40ODE4MSA2LjM3NDIzLDUuNzQ0MDYgMC40Nzg4LDAuOTMwODMgMC41MDQ5MywxLjczMzIzIDAuNTA0OTMsMTUuNTAyNjUgdiAxNC41MjEwMSBsIC0wLjYxMTYyLDEuMTU2NiBjIC0wLjQ3Njg2LDAuOTAxNzUgLTEuNjg2NTgsMS45OTE1OSAtNS40OTAxMSw0Ljk0NjA3IC01LjIxNDE5LDQuMDUwMjQgLTYuOTY4NzYsNS4xMTcyMSAtOS4xOTA5OCw1LjU4OTA4IC0wLjgxMTIsMC4xNzIyNiAtNC4wMTY5MSwwLjI5NzczIC03LjYwNjc3LDAuMjk3NzMgaCAtNi4yMDQ2OCB2IDMuMTc1IDMuMTc1IGggNS41NTYyNSBjIDUuMjAzNDcsMCA1LjU4OTg0LDAuMDMzNiA2LjA4NTQxLDAuNTI5MTYgMC42NjAzNSwwLjY2MDM1IDAuNjgwMzIsMS42MzMyOSAwLjA0NTMsMi4yMDc5NSAtMC40NDQ2OCwwLjQwMjQzIC0zLjEwMTM3LDAuNDM3ODkgLTMyLjgwODM0LDAuNDM3ODkgLTMxLjk3MTcsMCAtMzIuMzMwMjUsLTAuMDA2IC0zMi44NTM2NCwtMC41MjkxNyB6IG0gNTAuOCwtNS44MjA4MyB2IC0zLjE3NSBIIDk2LjE2NzA1IDc4LjE3NTM5IHYgMy4xNzUgMy4xNzUgaCAxNy45OTE2NiAxNy45OTE2NyB6IE0gNjMuODg3ODksMTg1LjM4ODU0IFYgMTYyLjEwNTIgaCAtMy43MDQxNyAtMy43MDQxNyB2IDIzLjI4MzM0IDIzLjI4MzMzIGggMy43MDQxNyAzLjcwNDE3IHogbSA1MC4yNzA4MywyMS42OTU4MyB2IC0xLjU4NzUgSCA5MC42MTA4IDY3LjA2Mjg5IHYgMS41ODc1IDEuNTg3NSBoIDIzLjU0NzkxIDIzLjU0NzkyIHogbSAxNy45OTE2NiwwLjg5MjIxIGMgMS4wNzI2MSwtMC41MDcxOSA0LjM0ODA5LC0yLjkzMDI4IDkuMzI2NTYsLTYuODk5NDggbCAxLjc4NTk0LC0xLjQyMzg3IC0wLjAwNCwtMTQuMjA5OTUgYyAtMC4wMDIsLTcuODE1NDggLTAuMDkxNSwtMTQuMzQ3MTIgLTAuMTk4NDMsLTE0LjUxNDc3IC0wLjUwNDQ5LC0wLjc5MTA5IC0xMC4zNjE1MywtOC4wNjExMiAtMTEuNDIwMTcsLTguNDIyOTEgLTAuOTIyNDcsLTAuMzE1MjUgLTIuNTY4MTgsLTAuNDAwNCAtNy43MzkwNiwtMC40MDA0IGggLTYuNTY3NDUgdiAyMy4yOTk2IDIzLjI5OTU5IGwgNi44MTMwMiwtMC4wODI0IGMgNi4zMDMxLC0wLjA3NjIgNi45MDIxMywtMC4xMjQ1NCA4LjAwMzY0LC0wLjY0NTQgeiBNIDUzLjMwNDU1LDE4NS4zODg1NCB2IC0xMi43IGggLTMuNzA0MTYgLTMuNzA0MTcgdiAxMi43IDEyLjcgaCAzLjcwNDE3IDMuNzA0MTYgeiBtIC0xMC41ODMzMywwIHYgLTEuNTg3NSBoIC00LjYxMTMxIGMgLTUuMDc2MjgsMCAtNS40NDI4NiwwLjEwNzE4IC01LjQ0Mjg2LDEuNTkxMzkgMCwxLjQwMDc3IDAuNjQ4MjksMS41ODM2MSA1LjYxNTEzLDEuNTgzNjEgaCA0LjQzOTA0IHogbSA3MS40Mzc1LC0yMS42OTU4NCB2IC0xLjU4NzUgSCA5MC42MTA4IDY3LjA2Mjg5IHYgMS41ODc1IDEuNTg3NSBoIDIzLjU0NzkxIDIzLjU0NzkyIHogbSAtMjguMDQ1ODQsLTcuOTM3NSB2IC0zLjE3NSBoIC03LjQwODMzIC03LjQwODMzIHYgMy4xNzUgMy4xNzUgaCA3LjQwODMzIDcuNDA4MzMgeiBtIC0xMS41Mzc4MywwLjkyMTY0IGMgLTAuNDg1NjcsLTAuNDg1NjcgLTAuNjE4MzksLTAuODI1NzcgLTAuNDkwNDIsLTEuMjU2NzcgMC4zNjc2MiwtMS4yMzgxOSAxLjc4ODU4LC0xLjY1OTA4IDIuNTk0NTQsLTAuNzY4NTEgMC42MjQ5OCwwLjY5MDU5IDAuNTUyNzUsMS43ODY5MyAtMC4xNTAxNiwyLjI3OTI3IC0wLjgxMDA4LDAuNTY3NCAtMS4xODA3NSwwLjUxOTIxIC0xLjk1Mzk2LC0wLjI1Mzk5IHogbSA2LjM1LDAgYyAtMC40ODU2NywtMC40ODU2NyAtMC42MTgzOSwtMC44MjU3NyAtMC40OTA0MiwtMS4yNTY3NyAwLjM2NzYyLC0xLjIzODE5IDEuNzg4NTgsLTEuNjU5MDggMi41OTQ1NCwtMC43Njg1MSAwLjYyNDk4LDAuNjkwNTkgMC41NTI3NSwxLjc4NjkzIC0wLjE1MDE2LDIuMjc5MjcgLTAuODEwMDgsMC41Njc0IC0xLjE4MDc1LDAuNTE5MjEgLTEuOTUzOTYsLTAuMjUzOTkgeiIgc3R5bGU9ImZpbGw6IzAwMDAwMDtzdHJva2Utd2lkdGg6MC4yNjQ1ODMiLz48cmVjdCB5PSIxNjcuNTQwMzkiIHg9IjY3LjcxODQyMiIgaGVpZ2h0PSIzNS40NDc2NjYiIHdpZHRoPSI0Ni4zMTYwNTUiIGlkPSJyZWN0NDUyIiBzdHlsZT0iZmlsbDojZmZmZmZmO2ZpbGwtb3BhY2l0eToxO3N0cm9rZS13aWR0aDoxLjAyMTkyO3N0cm9rZS1kYXNoYXJyYXk6Mi4wNzUzOSwgNi4yMjYxODtzdHJva2UtZGFzaG9mZnNldDo3LjQ3MTQxIi8+PC9nPjwvZz48L3N2Zz4=;fontSize=15;" vertex="1" parent="1">
          <mxGeometry x="690" y="728" width="130" height="80" as="geometry" />
        </mxCell>
        <mxCell id="1WpGNvqaU7ojmKuFjwYu-20" style="edgeStyle=orthogonalEdgeStyle;rounded=0;orthogonalLoop=1;jettySize=auto;html=1;exitX=1;exitY=0.5;exitDx=0;exitDy=0;" edge="1" parent="1" source="1WpGNvqaU7ojmKuFjwYu-19" target="1WpGNvqaU7ojmKuFjwYu-6">
          <mxGeometry relative="1" as="geometry">
            <mxPoint x="774" y="630" as="targetPoint" />
            <Array as="points">
              <mxPoint x="840" y="768" />
            </Array>
          </mxGeometry>
        </mxCell>
        <mxCell id="1WpGNvqaU7ojmKuFjwYu-21" value="compte tour" style="edgeLabel;html=1;align=center;verticalAlign=middle;resizable=0;points=[];rotation=-90;" vertex="1" connectable="0" parent="1WpGNvqaU7ojmKuFjwYu-20">
          <mxGeometry x="0.0455" y="1" relative="1" as="geometry">
            <mxPoint x="-8" y="-24" as="offset" />
          </mxGeometry>
        </mxCell>
        <mxCell id="1WpGNvqaU7ojmKuFjwYu-22" style="edgeStyle=orthogonalEdgeStyle;rounded=0;orthogonalLoop=1;jettySize=auto;html=1;exitX=1;exitY=0.5;exitDx=0;exitDy=0;" edge="1" parent="1" target="1WpGNvqaU7ojmKuFjwYu-6">
          <mxGeometry relative="1" as="geometry">
            <mxPoint x="611" y="631" as="targetPoint" />
            <Array as="points">
              <mxPoint x="677" y="769" />
            </Array>
            <mxPoint x="657" y="769" as="sourcePoint" />
          </mxGeometry>
        </mxCell>
        <mxCell id="1WpGNvqaU7ojmKuFjwYu-23" value="compte tour" style="edgeLabel;html=1;align=center;verticalAlign=middle;resizable=0;points=[];rotation=-90;" vertex="1" connectable="0" parent="1WpGNvqaU7ojmKuFjwYu-22">
          <mxGeometry x="0.0455" y="1" relative="1" as="geometry">
            <mxPoint x="-7" y="-24" as="offset" />
          </mxGeometry>
        </mxCell>
        <mxCell id="1WpGNvqaU7ojmKuFjwYu-36" style="rounded=0;orthogonalLoop=1;jettySize=auto;html=1;exitX=1;exitY=0;exitDx=0;exitDy=0;startArrow=classic;startFill=1;endArrow=none;" edge="1" parent="1" source="1WpGNvqaU7ojmKuFjwYu-24" target="1WpGNvqaU7ojmKuFjwYu-30">
          <mxGeometry relative="1" as="geometry" />
        </mxCell>
        <mxCell id="1WpGNvqaU7ojmKuFjwYu-24" value="MOT1" style="text;html=1;align=center;verticalAlign=middle;whiteSpace=wrap;rounded=0;" vertex="1" parent="1">
          <mxGeometry x="577.5" y="612" width="35" height="15" as="geometry" />
        </mxCell>
        <mxCell id="1WpGNvqaU7ojmKuFjwYu-35" style="rounded=0;orthogonalLoop=1;jettySize=auto;html=1;exitX=0.5;exitY=0;exitDx=0;exitDy=0;endArrow=none;startFill=1;startArrow=classic;" edge="1" parent="1" source="1WpGNvqaU7ojmKuFjwYu-25">
          <mxGeometry relative="1" as="geometry">
            <mxPoint x="730" y="590" as="targetPoint" />
          </mxGeometry>
        </mxCell>
        <mxCell id="1WpGNvqaU7ojmKuFjwYu-25" value="MOT2" style="text;html=1;align=center;verticalAlign=middle;whiteSpace=wrap;rounded=0;" vertex="1" parent="1">
          <mxGeometry x="737.5" y="612" width="35" height="15" as="geometry" />
        </mxCell>
        <mxCell id="1WpGNvqaU7ojmKuFjwYu-26" value="Proxi1" style="text;html=1;align=center;verticalAlign=middle;whiteSpace=wrap;rounded=0;" vertex="1" parent="1">
          <mxGeometry x="660" y="612" width="35" height="15" as="geometry" />
        </mxCell>
        <mxCell id="1WpGNvqaU7ojmKuFjwYu-37" style="rounded=0;orthogonalLoop=1;jettySize=auto;html=1;exitX=0;exitY=0;exitDx=0;exitDy=0;" edge="1" parent="1" source="1WpGNvqaU7ojmKuFjwYu-27" target="1WpGNvqaU7ojmKuFjwYu-30">
          <mxGeometry relative="1" as="geometry" />
        </mxCell>
        <mxCell id="1WpGNvqaU7ojmKuFjwYu-27" value="Proxi2" style="text;html=1;align=center;verticalAlign=middle;whiteSpace=wrap;rounded=0;" vertex="1" parent="1">
          <mxGeometry x="820" y="612" width="35" height="15" as="geometry" />
        </mxCell>
        <mxCell id="1WpGNvqaU7ojmKuFjwYu-32" style="edgeStyle=orthogonalEdgeStyle;rounded=0;orthogonalLoop=1;jettySize=auto;html=1;" edge="1" parent="1" source="1WpGNvqaU7ojmKuFjwYu-28" target="1WpGNvqaU7ojmKuFjwYu-30">
          <mxGeometry relative="1" as="geometry" />
        </mxCell>
        <mxCell id="1WpGNvqaU7ojmKuFjwYu-28" value="PWR" style="text;html=1;align=center;verticalAlign=middle;whiteSpace=wrap;rounded=0;" vertex="1" parent="1">
          <mxGeometry x="555" y="546.5" width="35" height="15" as="geometry" />
        </mxCell>
        <mxCell id="1WpGNvqaU7ojmKuFjwYu-29" value="" style="shape=image;verticalLabelPosition=bottom;labelBackgroundColor=default;verticalAlign=top;aspect=fixed;imageAspect=0;editableCssRules=.*;image=data:image/svg+xml,PHN2ZyB4bWxucz0iaHR0cDovL3d3dy53My5vcmcvMjAwMC9zdmciIHhtbDpzcGFjZT0icHJlc2VydmUiIGlkPSJzdmc1IiB2ZXJzaW9uPSIxLjEiIHZpZXdCb3g9IjAgMC4wMDAwMTE0NDQwOTE3OTY4NzUgMTAxLjYwMjcyOTc5NzM2MzI4IDEyNS43OTU4Njc5MTk5MjE4OCIgaGVpZ2h0PSIxMjUuNzk1ODY3OTE5OTIxODgiIHdpZHRoPSIxMDEuNjAyNzI5Nzk3MzYzMjgiPjxkZWZzIGlkPSJkZWZzMiIvPjxnIHRyYW5zZm9ybT0idHJhbnNsYXRlKC00OC4wMzQwMDcsLTUzLjk3NTE1NykiIGlkPSJsYXllcjEiPjxwYXRoIGlkPSJwYXRoMzAyIiBkPSJtIDEwOC40MzMwOSwxNzkuNDA3MjUgYyAyLjU3OCwtMC42OTMxNiA0Ljg5NzgyLC0zLjEyNDk0IDUuNDUzNywtNS43MTY5MiAwLjE5NzE5LC0wLjkxOTQ0IDAuMjg3NDIsLTEwLjY4MDcxIDAuMjg3NDIsLTMxLjA5Mjc4IHYgLTI5Ljc1MjYgaCAxLjA5MDUzIGMgMC41OTk3OCwwIDIuMzM5NjYsLTAuMTg1NDggMy44NjYzNywtMC40MTIxOCAxNS4zMzQwNiwtMi4yNzY4OSAyNy4xOTE0MywtMTEuMzQ1OTQgMjkuOTY1OTYsLTIyLjkxOTMzOSAwLjcyMjI5LC0zLjAxMjg3OSAwLjcxOTEzLC03LjQ4MTE3IC0wLjAwNywtMTAuNTM1MTUgLTEuMTI1NzQsLTQuNzMxNzM5IC00LjQ1ODM2LC0xMC4wMzM5MzMgLTguNDg0ODgsLTEzLjQ5OTQ1NSAtNi42ODI1MSwtNS43NTE0NiAtMTUuMjQ4MywtOS4wNjU0NzMgLTI1LjM3MjE4LC05LjgxNjIzMyAtMy40ODgyNCwtMC4yNTg2NzggLTQuMzE4NDksLTAuNDA3NDc1IC01LjU1NjI1LC0wLjk5NTc3OSBsIC0xLjQ1NTIxLC0wLjY5MTY1NyBIIDgwLjk2OTQ2NyA1My43MTczNzcgbCAtMS4yMzYyNSwwLjYxNDgwOCBjIC0xLjY3MTQsMC44MzEyMDkgLTMuMDY2NTUsMi4yNDExNDUgLTMuODIxMSwzLjg2MTYxIGwgLTAuNjI2MDIsMS4zNDQ0MTUgdiA1Ny4wMTc3MSA1Ny4wMTc3IGwgMC42NDEzNCwxLjMyMjkyIGMgMC43NTI0OSwxLjU1MjIgMS4yNjM4NiwyLjE4MTE4IDIuNTM4ODEsMy4xMjI2NSAyLjA2OTI4LDEuNTI4MDUgMS42ODk1MSwxLjUwOTE5IDMwLjAwOTMzLDEuNDg5NyAyMC4zMTIzMDMsLTAuMDE0IDI2LjIxNTMxMywtMC4wOTIgMjcuMjEwMDYzLC0wLjM1OTQyIHogbSAtNTQuNTMzNjUzLC00LjY1NjU5IGMgLTEuNzU5NTIsLTEuMDcyNzUgLTEuNjM3NzIsMy4yMzYgLTEuNjM3NzIsLTU3LjkzNjk2IDAsLTYxLjE3Mjk2NCAtMC4xMjE4LC01Ni44NjQyMTggMS42Mzc3MiwtNTcuOTM2OTY5IDAuODU4MDksLTAuNTIzMTY1IDEuMjgyMTksLTAuNTMzOTkxIDIwLjk1NzM0LC0wLjUzNDk2IGwgMjAuMDgxNTMsLTkuODllLTQgLTMuNTQ1MDcsMS43ODU5MzggLTMuNTQ1MDcsMS43ODU5MzcgLTAuODI0OTksLTAuODU5ODk2IC0wLjgyNDk5LC0wLjg1OTg5NiBoIC05LjI4Mjg3IGMgLTYuMjM5NzEsMCAtOS40OTQyMywwLjA5NjMgLTkuOTI3NjEsMC4yOTM3NiAtMC42MzczOSwwLjI5MDQxNiAtMS4yMzIyNSwxLjIzNDI2OCAtMS4yMzIyNSwxLjk1NTE5OSAwLDAuNzIwOTMgMC41OTQ4NiwxLjY2NDc4MiAxLjIzMjI1LDEuOTU1MTk4IDAuNDI4MDksMC4xOTUwNDkgMy4zOTI4NSwwLjI5Mzc2IDguODIzMDQsMC4yOTM3NiBoIDguMTc4MjkgbCAtMS4yNzI4NywxLjE5MDYyNSAtMS4yNzI4NywxLjE5MDYyNSBoIC0xMi45NTM0IGMgLTEyLjY0NjYyLDAgLTEyLjk2NzA0LDAuMDEyNyAtMTMuNTI5MjYsMC41MzY0ODkgLTAuMzE2NzIsMC4yOTUwNyAtMC42Mzk5OSwwLjgwMTA4NSAtMC43MTgzOCwxLjEyNDQ3OSAtMC4wNzg0LDAuMzIzMzk1IC0wLjEwOTYsMjAuNjc2NDg3IC0wLjA2OTMsNDUuMjI5MDkgbCAwLjA3MzIsNDQuNjQxMTEgMC42MDI2NiwwLjYwMjY0IDAuNjAyNjcsMC42MDI2NSBoIDI1LjU0Nzg0IDI1LjU0Nzg1MyBsIDAuNjM4NTUsLTAuNzQyMzYgMC42Mzg1NSwtMC43NDIzNiB2IC0yMi43Mzk0MSAtMjIuNzM5NDEgaCAwLjkyNjA0IDAuOTI2MDUgbCAtMC4wMDQsMjkuOTY0MDYgYyAtMC4wMDMsMjMuNDM3NzIgLTAuMDc1OSwzMC4xMDY0IC0wLjMzNDU5LDMwLjYxNzU3IC0wLjE4MTg3LDAuMzU5NDQgLTAuNzMzNTEsMC45MjQ5OSAtMS4yMjU4NSwxLjI1Njc3IGwgLTAuODk1MTcsMC42MDMyNiAtMjYuMjIwNzYzLC0wLjAwMSBjIC0yNS44MzI4MiwtMC4wMDEgLTI2LjIzMzczLC0wLjAwOSAtMjcuMDk2NTksLTAuNTM0OTYgeiBtIDI5LjMyNjYzLC0wLjY0ODMzIGMgMy43NjE2MywtMS4yMDkzNSA1LjgyMzM5LC01LjgxODQxIDQuMjA0NDUsLTkuMzk5MDUgLTIuNjM1MjEsLTUuODI4MzQgLTExLjAxNzg2LC01LjUyMzYgLTEzLjA2MTc0LDAuNDc0ODUgLTEuODM4OTQsNS4zOTcwMiAzLjQwMjM4LDEwLjY3Nzk1IDguODU3MjksOC45MjQyIHogbSAtMy45OTcyMSwtNC44ODA3OCBjIC0yLjAzNjc0LC0yLjAzNjc1IDAuMTQyMjMsLTUuMjQ4MyAyLjgwNTc3LC00LjEzNTQgMC42NDQ0MywwLjI2OTI2IDEuMDYwMzcsMC42ODUyIDEuMzI5NjMsMS4zMjk2MiAxLjExMjksMi42NjM1NSAtMi4wOTg2Niw0Ljg0MjUyIC00LjEzNTQsMi44MDU3OCB6IE0gNTguNjExNzE3LDExMy41MDY0IFYgNzEuNTY5OTQ4IGggOS41MjQ5OSBjIDUuMjM4NzUsMCA5LjUyNSwwLjA3NTI0IDkuNTI1LDAuMTY3MjA4IDAsMC4wOTE5NiAtMC4yMzg5NCwwLjU1MzgzMiAtMC41MzA5OSwxLjAyNjM3MyAtMi43NTU3Myw0LjQ1ODg2NCAtMy43ODY1OCwxMS43MTAxMTEgLTIuNDA2ODUsMTYuOTMwMzc3IDEuMTE3OTYsNC4yMjk4NTkgNC4wNDQyNCw5LjEzMzkxNiA3LjQxNDM3LDEyLjQyNTQ3NCBsIDEuMzQ0MzEsMS4zMTI5NyB2IDYuMzE5OTYgYyAwLDcuMjA3NDkgMC4xMjEwMyw3Ljc2NTc3IDEuODc3OTUsOC42NjIwOCAyLjE2NTYyLDEuMTA0ODIgMy4xOTg1NCwwLjU3NTI4IDcuNzc5MzQsLTMuOTg4MTQgbCAzLjcwNDE3LC0zLjY5MDEyIDIuOTEwNDA5LDAuNjg4ODQgYyAxLjYwMDczNCwwLjM3ODg2IDMuMDU5MjU0LDAuNzMwNTUgMy4yNDExNTQsMC43ODE1MiAwLjI2MTEyLDAuMDczMiAwLjMzMDczLDQuNjMyODcgMC4zMzA3MywyMS42NjQ1MyB2IDIxLjU3MTg0IEggODAuOTY5MDA3IDU4LjYxMTcxNyBaIG0gMjkuMTA0MTYsLTUuOTcwNTEgYyAwLC0zLjYyMDU0IC0wLjEwNDYxLC01Ljc3NjE2IC0wLjI5ODU0LC02LjE1MTU3IC0wLjE2NDE5LC0wLjMxNzg1IC0xLjIxNTMsLTEuNTMwNDE1IC0yLjMzNTc5LC0yLjY5NDU4MSAtMS4xMjA0OSwtMS4xNjQxNjcgLTIuNTQ0NDYsLTIuODY5NzQgLTMuMTY0MzgsLTMuNzkwMTYyIC02LjQ0NzU4LC05LjU3Mjk3NCAtMy42Mzk5NiwtMjEuMDE4NDE0IDYuOTQ1NDUsLTI4LjMxMzUyOCA2LjgyMDcsLTQuNzAwNjA1IDE1LjE2ODUxMywtNi45MzExOTQgMjQuNjQwODQzLC02LjU4NDE5NCA4LjM5NTkyLDAuMzA3NTY4IDE1Ljc1OTg3LDIuNjM3MDA4IDIxLjcwNTE5LDYuODY2MDEgMTEuODkwODQsOC40NTgxMzkgMTMuNDU1MTEsMjEuNzY0NzI2IDMuNzEyNjksMzEuNTgyMjYyIC01LjkyMDM0LDUuOTY1OTkzIC0xNC43OTkwNiw5LjUyNDQ3MyAtMjUuMDkzMTcsMTAuMDU3MDQzIC00LjI3OTU1LDAuMjIxNCAtOC40NDY2MiwtMC4yMTc2IC0xMy4xNDc3MSwtMS4zODUxMSAtNS4yMzYxNzMsLTEuMzAwNDEgLTUuMjEyMzMzLC0xLjMwNzYxIC05LjM5MjcwMywyLjgzNTI4IC0xLjc0NjI1LDEuNzMwNTkgLTMuMjY0MywzLjE0NzggLTMuMzczNDQsMy4xNDkzNiAtMC4xMDkxNCwwLjAwMiAtMC4xOTg0NCwtMi41MDUzMSAtMC4xOTg0NCwtNS41NzA4MSB6IE0gMTMxLjk5NjUzLDkwLjk4MTkwNSBjIDIuNTM2NTQsLTAuNzc5MDYzIDQuNjcwODQsLTMuNzgwNTU3IDQuNjY1NzksLTYuNTYxNTQyIC0wLjAwNiwtMy4zNjQ4NTQgLTIuODEzNjYsLTYuNDgzNjE0IC02LjIxOTcxLC02LjkwOTE3MyAtNi40MDQ0NCwtMC44MDAxODEgLTEwLjI5NjUzLDcuMTk5NTcyIC01LjcyNjMyLDExLjc2OTc4NiAxLjk5ODU3LDEuOTk4NTYyIDQuNDQ3OTUsMi41NzA4MjkgNy4yODAyNCwxLjcwMDkyOSB6IG0gLTQuMDg0MzQsLTQuODM5NTIyIGMgLTAuNTcyNTgsLTAuNTcyNTg1IC0wLjc3MzM5LC0xLjAyNDQxMSAtMC43NzMzOSwtMS43NDAxNDQgMCwtMC43MTU3MzIgMC4yMDA4MSwtMS4xNjc1NTggMC43NzMzOSwtMS43NDAxNDMgMC41NzI1OSwtMC41NzI1ODcgMS4wMjQ0MSwtMC43NzMzOTggMS43NDAxNSwtMC43NzMzOTggMC43MTU3MywwIDEuMTY3NTYsMC4yMDA4MTEgMS43NDAxNCwwLjc3MzM5OCAwLjU3MjU5LDAuNTcyNTg1IDAuNzczNCwxLjAyNDQxMSAwLjc3MzQsMS43NDAxNDMgMCwwLjcxNTczMyAtMC4yMDA4MSwxLjE2NzU1OSAtMC43NzM0LDEuNzQwMTQ0IC0wLjU3MjU4LDAuNTcyNTg3IC0xLjAyNDQxLDAuNzczMzk4IC0xLjc0MDE0LDAuNzczMzk4IC0wLjcxNTc0LDAgLTEuMTY3NTYsLTAuMjAwODExIC0xLjc0MDE1LC0wLjc3MzM5OCB6IG0gLTE0LjA5OTA2LDQuOTgzMTY3IGMgMi44NzIwNiwtMC44MzIzODcgNS4wMDEwMiwtMy42OTg1NDcgNC45ODAxMywtNi43MDQ2MDIgLTAuMDQzLC02LjE5MDgwMyAtNy40MDkxNCwtOS4yOTIzNTQgLTExLjc1Mjg4LC00Ljk0ODYyMSAtNS4wNzcyMSw1LjA3NzIxOSAtMC4wOTgsMTMuNjQ0NTIgNi43NzI3NSwxMS42NTMyMjMgeiBtIC0zLjY1OTM0LC00LjkyMDcyOCBjIC0xLjU5OTc4LC0xLjUzMjY5MiAtMC40NTczOCwtNC4zMTYxMjQgMS43NzE0NiwtNC4zMTYxMjQgMC43MTU3NCwwIDEuMTY3NTYsMC4yMDA4MTEgMS43NDAxNSwwLjc3MzM5OCAyLjMzMjA0LDIuMzMyMDQzIC0xLjEyOTg0LDUuODI0NjAzIC0zLjUxMTYxLDMuNTQyNzI2IHogbSAtMTMuODkyNTgzLDQuODI3MjYxIGMgMi41MzQ1NDksLTAuOTA0MDk3IDQuMDk0OTIzLC0yLjY2NTM2NyA0LjY3OTE5MywtNS4yODE2MzggMC41Nzg3NSwtMi41OTE1OTEgLTAuNjI3MDUsLTUuNTM1ODI3IC0yLjg4OTQ3NCwtNy4wNTUyODkgLTMuMzk4MjI5LC0yLjI4MjI3NSAtNy43MzU4NTksLTEuMjk3MTA0IC05LjkzMjQ5OSwyLjI1NTg4OCAtMC43MTg0MSwxLjE2MTk5OSAtMC43OTg5NiwxLjUwOTYzMyAtMC43OTQ4NCwzLjQzMDQ0NyAwLjAwNSwyLjUzMzQ4MyAwLjU1MDU5LDMuODAxMjEzIDIuMjY2MSw1LjI2OTYyNiAxLjkwMzMsMS42MjkxNTQgNC40ODAzMywyLjE2MjU4NSA2LjY3MTUyLDEuMzgwOTY2IHogbSAtMy44NzkwNCwtNC44MTM4MzkgYyAtMS4wODA2MywtMS4wODA2MyAtMS4wMzQ0MywtMi41MzU3MzUgMC4xMTQzNSwtMy42MDE5NDIgMS4wODk3NiwtMS4wMTE0MjMgMi40MDIwNCwtMC45OTM5NjMgMy40NDE4LDAuMDQ1NzkgMC41NzI1OCwwLjU3MjU4NSAwLjc3MzM5LDEuMDI0NDExIDAuNzczMzksMS43NDAxNDMgMCwyLjIwMDg0OSAtMi43NzkwNCwzLjM2NjUwMyAtNC4zMjk1NCwxLjgxNjAwNSB6IiBzdHlsZT0iZmlsbDojMDAwMDAwO3N0cm9rZS13aWR0aDowLjI2NDU4MyIvPjwvZz48L3N2Zz4=;" vertex="1" parent="1">
          <mxGeometry x="796.71" y="489.5" width="58.29" height="72" as="geometry" />
        </mxCell>
        <mxCell id="1WpGNvqaU7ojmKuFjwYu-31" style="edgeStyle=orthogonalEdgeStyle;rounded=0;orthogonalLoop=1;jettySize=auto;html=1;exitX=1;exitY=0.5;exitDx=0;exitDy=0;startArrow=classic;startFill=1;entryX=-0.015;entryY=0.89;entryDx=0;entryDy=0;entryPerimeter=0;" edge="1" parent="1" source="1WpGNvqaU7ojmKuFjwYu-30" target="1WpGNvqaU7ojmKuFjwYu-29">
          <mxGeometry relative="1" as="geometry">
            <mxPoint x="800" y="554" as="targetPoint" />
          </mxGeometry>
        </mxCell>
        <mxCell id="1WpGNvqaU7ojmKuFjwYu-30" value="" style="shape=image;html=1;verticalAlign=top;verticalLabelPosition=bottom;labelBackgroundColor=#ffffff;imageAspect=0;aspect=fixed;image=https://cdn0.iconfinder.com/data/icons/phosphor-light-vol-1/256/brain-light-128.png" vertex="1" parent="1">
          <mxGeometry x="656.5" y="505.5" width="97" height="97" as="geometry" />
        </mxCell>
        <mxCell id="1WpGNvqaU7ojmKuFjwYu-33" style="rounded=0;orthogonalLoop=1;jettySize=auto;html=1;entryX=0.345;entryY=0.871;entryDx=0;entryDy=0;entryPerimeter=0;" edge="1" parent="1" source="1WpGNvqaU7ojmKuFjwYu-26" target="1WpGNvqaU7ojmKuFjwYu-30">
          <mxGeometry relative="1" as="geometry">
            <mxPoint x="677" y="590" as="targetPoint" />
          </mxGeometry>
        </mxCell>
      </root>
    </mxGraphModel>
  </diagram>
</mxfile>
